# xmcd
#
# Track frame offsets: 
#        150
#        29887
#        49050
#        64537
#        82500
#        93600
#        105900
#        127575
#        152625
#        178950
#        195787
#
# Disc length: 2821 seconds
#
# Revision: 7
# Processed by: cddbd v1.5.2PL0 Copyright (c) Steve Scherf et al.
# Submitted via: ExactAudioCopyFreeDBPlugin 1.0
#
DISCID=7b0b030b
DTITLE=Conklin, Larry - Dolphin Grace
DYEAR=1990
DGENRE=World
TTITLE0=Dophin Grace
TTITLE1=Ganymede
TTITLE2=Windrose
TTITLE3=Timberline
TTITLE4=Reunion
TTITLE5=The Aztec flower
TTITLE6=Night comes from the east
TTITLE7=The tower (prelude)
TTITLE8=Luminaries
TTITLE9=My heart for ever
TTITLE10=Amethyst
EXTD=YEAR: 1990
EXTT0=
EXTT1=
EXTT2=
EXTT3=
EXTT4=
EXTT5=
EXTT6=
EXTT7=
EXTT8=
EXTT9=
EXTT10=
PLAYORDER=
